<svg width="16" height="16" viewBox="0 0 16 16" fill="none" xmlns="http://www.w3.org/2000/svg">
<path d="M9.99996 10.8333V11.5C9.99996 12.6046 9.10453 13.5 7.99996 13.5C6.89539 13.5 5.99996 12.6046 5.99996 11.5V10.8333M9.99996 10.8333H5.99996M9.99996 10.8333H12.3936C12.6486 10.8333 12.7768 10.8333 12.88 10.7985C13.0773 10.732 13.2316 10.5771 13.2981 10.3799C13.3331 10.2762 13.3331 10.1477 13.3331 9.89062C13.3331 9.77815 13.333 9.72192 13.3242 9.66829C13.3075 9.56696 13.2682 9.47089 13.2083 9.38748C13.1767 9.3434 13.1365 9.30318 13.0572 9.22389L12.7975 8.96419C12.7137 8.88041 12.6666 8.76676 12.6666 8.64827V6.16667C12.6666 3.58933 10.5773 1.49999 7.99996 1.5C5.42264 1.50001 3.33329 3.58934 3.33329 6.16667V8.64829C3.33329 8.76678 3.28612 8.88041 3.20234 8.96419L2.94267 9.22386C2.86313 9.3034 2.82332 9.34336 2.79163 9.3875C2.73173 9.47091 2.69206 9.56696 2.67543 9.66829C2.66663 9.72192 2.66663 9.77816 2.66663 9.89064C2.66663 10.1477 2.66663 10.2762 2.70159 10.3798C2.76813 10.5771 2.92316 10.732 3.1204 10.7985C3.22367 10.8333 3.3513 10.8333 3.60633 10.8333H5.99996" stroke="#44413E" stroke-opacity="0.6" stroke-width="1.25" stroke-linecap="round" stroke-linejoin="round"/>
</svg>
