<svg width="16" height="16" viewBox="0 0 16 16" fill="none" xmlns="http://www.w3.org/2000/svg">
<g clip-path="url(#clip0_182_3755)">
<path d="M1 3.40015V4.60015C1 5.44023 1 5.86004 1.16349 6.18091C1.3073 6.46316 1.5366 6.69286 1.81885 6.83667C2.1394 7 2.55925 7 3.39768 7H4.60232C5.44075 7 5.85999 7 6.18055 6.83667C6.46279 6.69286 6.69286 6.46316 6.83667 6.18091C7 5.86036 7 5.44112 7 4.60268V3.39768C7 2.55925 7 2.1394 6.83667 1.81885C6.69286 1.5366 6.46279 1.3073 6.18055 1.16349C5.85968 1 5.44023 1 4.60015 1H3.40015C2.56007 1 2.13972 1 1.81885 1.16349C1.5366 1.3073 1.3073 1.5366 1.16349 1.81885C1 2.13972 1 2.56007 1 3.40015Z" stroke="#44413E" stroke-opacity="0.6" stroke-linecap="round" stroke-linejoin="round"/>
</g>
<g clip-path="url(#clip1_182_3755)">
<path d="M9 3.40015V4.60015C9 5.44023 9 5.86004 9.16349 6.18091C9.3073 6.46316 9.5366 6.69286 9.81885 6.83667C10.1394 7 10.5592 7 11.3977 7H12.6023C13.4408 7 13.86 7 14.1805 6.83667C14.4628 6.69286 14.6929 6.46316 14.8367 6.18091C15 5.86036 15 5.44112 15 4.60268V3.39768C15 2.55925 15 2.1394 14.8367 1.81885C14.6929 1.5366 14.4628 1.3073 14.1805 1.16349C13.8597 1 13.4402 1 12.6001 1H11.4001C10.5601 1 10.1397 1 9.81885 1.16349C9.5366 1.3073 9.3073 1.5366 9.16349 1.81885C9 2.13972 9 2.56007 9 3.40015Z" stroke="#44413E" stroke-opacity="0.6" stroke-linecap="round" stroke-linejoin="round"/>
</g>
<g clip-path="url(#clip2_182_3755)">
<path d="M1 11.4001V12.6001C1 13.4402 1 13.86 1.16349 14.1809C1.3073 14.4632 1.5366 14.6929 1.81885 14.8367C2.1394 15 2.55925 15 3.39768 15H4.60232C5.44075 15 5.85999 15 6.18055 14.8367C6.46279 14.6929 6.69286 14.4632 6.83667 14.1809C7 13.8604 7 13.4411 7 12.6027V11.3977C7 10.5592 7 10.1394 6.83667 9.81885C6.69286 9.5366 6.46279 9.3073 6.18055 9.16349C5.85968 9 5.44023 9 4.60015 9H3.40015C2.56007 9 2.13972 9 1.81885 9.16349C1.5366 9.3073 1.3073 9.5366 1.16349 9.81885C1 10.1397 1 10.5601 1 11.4001Z" stroke="#44413E" stroke-opacity="0.6" stroke-linecap="round" stroke-linejoin="round"/>
</g>
<g clip-path="url(#clip3_182_3755)">
<path d="M9 11.4001V12.6001C9 13.4402 9 13.86 9.16349 14.1809C9.3073 14.4632 9.5366 14.6929 9.81885 14.8367C10.1394 15 10.5592 15 11.3977 15H12.6023C13.4408 15 13.86 15 14.1805 14.8367C14.4628 14.6929 14.6929 14.4632 14.8367 14.1809C15 13.8604 15 13.4411 15 12.6027V11.3977C15 10.5592 15 10.1394 14.8367 9.81885C14.6929 9.5366 14.4628 9.3073 14.1805 9.16349C13.8597 9 13.4402 9 12.6001 9H11.4001C10.5601 9 10.1397 9 9.81885 9.16349C9.5366 9.3073 9.3073 9.5366 9.16349 9.81885C9 10.1397 9 10.5601 9 11.4001Z" stroke="#44413E" stroke-opacity="0.6" stroke-linecap="round" stroke-linejoin="round"/>
</g>
<defs>
<clipPath id="clip0_182_3755">
<rect width="8" height="8" fill="white"/>
</clipPath>
<clipPath id="clip1_182_3755">
<rect width="8" height="8" fill="white" transform="translate(8)"/>
</clipPath>
<clipPath id="clip2_182_3755">
<rect width="8" height="8" fill="white" transform="translate(0 8)"/>
</clipPath>
<clipPath id="clip3_182_3755">
<rect width="8" height="8" fill="white" transform="translate(8 8)"/>
</clipPath>
</defs>
</svg>
