<svg width="40" height="40" viewBox="0 0 40 40" fill="none" xmlns="http://www.w3.org/2000/svg">
<rect width="40" height="40" rx="8" fill="#44413E"/>
<path d="M10.6667 13L17.7922 18.381L17.7946 18.383C18.5858 18.9632 18.9817 19.2535 19.4152 19.3656C19.7984 19.4647 20.2013 19.4647 20.5845 19.3656C21.0184 19.2534 21.4154 18.9623 22.208 18.381C22.208 18.381 26.7784 14.8736 29.3333 13M9.5 24.4336V15.5669C9.5 14.2601 9.5 13.6063 9.75432 13.1071C9.97802 12.6681 10.3347 12.3114 10.7738 12.0877C11.2729 11.8334 11.9268 11.8334 13.2336 11.8334H26.7669C28.0737 11.8334 28.7262 11.8334 29.2253 12.0877C29.6643 12.3114 30.0222 12.6681 30.2459 13.1071C30.5 13.6058 30.5 14.2589 30.5 15.5631V24.4375C30.5 25.7418 30.5 26.3939 30.2459 26.8926C30.0222 27.3316 29.6643 27.6889 29.2253 27.9126C28.7267 28.1667 28.0745 28.1667 26.7703 28.1667H13.2297C11.9255 28.1667 11.2724 28.1667 10.7738 27.9126C10.3347 27.6889 9.97802 27.3316 9.75432 26.8926C9.5 26.3934 9.5 25.7404 9.5 24.4336Z" stroke="#F2EDE5" stroke-width="2" stroke-linecap="round" stroke-linejoin="round"/>
</svg>
