<svg width="32" height="32" viewBox="0 0 32 32" fill="none" xmlns="http://www.w3.org/2000/svg">
<path d="M14.6665 24.0001C14.6665 24.7365 15.2635 25.3334 15.9998 25.3334C16.7362 25.3334 17.3332 24.7365 17.3332 24.0001C17.3332 23.2637 16.7362 22.6667 15.9998 22.6667C15.2635 22.6667 14.6665 23.2637 14.6665 24.0001Z" stroke="#44413E" stroke-opacity="0.4" stroke-width="2" stroke-linecap="round" stroke-linejoin="round"/>
<path d="M14.6665 16.0001C14.6665 16.7365 15.2635 17.3334 15.9998 17.3334C16.7362 17.3334 17.3332 16.7365 17.3332 16.0001C17.3332 15.2637 16.7362 14.6667 15.9998 14.6667C15.2635 14.6667 14.6665 15.2637 14.6665 16.0001Z" stroke="#44413E" stroke-opacity="0.4" stroke-width="2" stroke-linecap="round" stroke-linejoin="round"/>
<path d="M14.6665 8.00008C14.6665 8.73646 15.2635 9.33341 15.9998 9.33341C16.7362 9.33341 17.3332 8.73646 17.3332 8.00008C17.3332 7.2637 16.7362 6.66675 15.9998 6.66675C15.2635 6.66675 14.6665 7.2637 14.6665 8.00008Z" stroke="#44413E" stroke-opacity="0.4" stroke-width="2" stroke-linecap="round" stroke-linejoin="round"/>
</svg>
