<svg width="16" height="16" viewBox="0 0 16 16" fill="none" xmlns="http://www.w3.org/2000/svg">
<path d="M6.66672 3.33366H5.46672C4.71998 3.33366 4.34633 3.33366 4.06112 3.47898C3.81023 3.60681 3.60641 3.81064 3.47858 4.06152C3.33325 4.34674 3.33325 4.72039 3.33325 5.46712V10.5338C3.33325 11.2805 3.33325 11.6537 3.47858 11.9389C3.60641 12.1898 3.81023 12.394 4.06112 12.5218C4.34605 12.667 4.71925 12.667 5.46452 12.667H10.5353C11.2806 12.667 11.6532 12.667 11.9382 12.5218C12.1891 12.394 12.3936 12.1896 12.5214 11.9387C12.6666 11.6538 12.6666 11.281 12.6666 10.5357V9.33366M13.3333 6.00033V2.66699M13.3333 2.66699H9.99992M13.3333 2.66699L8.66659 7.33366" stroke="#44413E" stroke-opacity="0.6" stroke-linecap="round" stroke-linejoin="round"/>
</svg>
