<svg width="16" height="16" viewBox="0 0 16 16" fill="none" xmlns="http://www.w3.org/2000/svg">
<path d="M10.0514 13.5666L10.1872 13.3225C10.2083 13.2846 10.2189 13.2659 10.2298 13.2476C10.3389 13.0656 10.4896 12.9121 10.6698 12.8001C10.688 12.7889 10.707 12.7782 10.7446 12.7565C10.7822 12.7348 10.8012 12.7238 10.82 12.7138C11.0076 12.6133 11.2166 12.559 11.4293 12.5557C11.4507 12.5554 11.4725 12.5555 11.516 12.5562L11.7995 12.561C12.2532 12.5686 12.4807 12.5724 12.6849 12.5087C12.8663 12.4521 13.0334 12.3573 13.1752 12.2308C13.3354 12.0878 13.4498 11.8898 13.6782 11.4935L13.8679 11.1643C14.0956 10.7691 14.2095 10.5714 14.253 10.3615C14.2914 10.1759 14.2896 9.98435 14.2481 9.79939C14.2012 9.59063 14.0843 9.39543 13.8507 9.00524L13.8496 9.00303L13.7084 8.76715C13.6861 8.72985 13.6748 8.71097 13.6644 8.69228C13.5613 8.50676 13.5042 8.29965 13.4974 8.0875C13.4967 8.06611 13.4967 8.04436 13.4967 8.00087C13.4967 7.95765 13.4967 7.93497 13.4974 7.91363C13.5043 7.70102 13.5616 7.49348 13.6652 7.30767C13.6756 7.28895 13.687 7.27042 13.7094 7.23305L13.8519 6.99566C14.0878 6.60282 14.2059 6.4061 14.253 6.19618C14.2946 6.01047 14.2958 5.81825 14.2569 5.63194C14.2129 5.42157 14.0982 5.22384 13.8686 4.82839L13.8679 4.82663L13.6792 4.50152L13.677 4.49792C13.4495 4.10603 13.3355 3.90961 13.1759 3.7678C13.0343 3.64196 12.8675 3.5479 12.6865 3.4916C12.4821 3.42796 12.254 3.43135 11.7982 3.43902L11.5151 3.44379C11.4722 3.44451 11.4509 3.44576 11.4298 3.44544C11.2167 3.44229 11.0072 3.38724 10.8194 3.2865C10.8008 3.27653 10.7822 3.2658 10.7451 3.24436C10.7079 3.22291 10.6895 3.21252 10.6716 3.20139C10.4903 3.08891 10.3388 2.93476 10.2295 2.75155C10.2187 2.73343 10.2083 2.71433 10.1875 2.67681L10.0539 2.43577C9.8317 2.03472 9.72048 1.83425 9.5622 1.68837C9.42219 1.55932 9.2561 1.46183 9.07522 1.40233C8.87075 1.33506 8.64148 1.33512 8.18297 1.33616L7.80822 1.33701C7.35277 1.33804 7.1252 1.33946 6.92212 1.40688C6.74245 1.46652 6.57735 1.5633 6.43818 1.69163C6.28086 1.83668 6.17033 2.03516 5.94892 2.43316L5.81602 2.67206C5.7934 2.71271 5.78224 2.73317 5.77043 2.75278C5.66111 2.93432 5.50997 3.08726 5.32978 3.19879C5.31031 3.21084 5.2901 3.2224 5.2497 3.24553C5.20979 3.26837 5.18984 3.28006 5.16984 3.29062C4.98471 3.38841 4.77902 3.44076 4.56969 3.44433C4.54707 3.44471 4.52419 3.44438 4.47822 3.44361L4.20654 3.43902C3.74915 3.4313 3.52019 3.42794 3.31514 3.49195C3.13374 3.54858 2.96669 3.64323 2.8249 3.76975C2.66462 3.91277 2.55036 4.11103 2.32197 4.50738L2.1323 4.83652C1.90455 5.23175 1.79077 5.4293 1.74734 5.63913C1.70892 5.82476 1.71042 6.01643 1.75194 6.20139C1.79887 6.41044 1.91616 6.60632 2.15045 6.99762L2.29169 7.2335C2.31404 7.27082 2.32524 7.28971 2.33564 7.30841C2.43878 7.49393 2.49611 7.70082 2.50292 7.91298C2.50361 7.93436 2.50361 7.95611 2.50361 7.9996C2.50361 8.04319 2.50361 8.06492 2.50292 8.08635C2.49608 8.29896 2.43856 8.50712 2.33499 8.69293C2.32588 8.70928 2.31603 8.72566 2.29875 8.75442L2.1482 9.00518C1.91232 9.39809 1.79458 9.59438 1.74748 9.80431C1.70581 9.99003 1.70411 10.1824 1.74302 10.3687C1.78695 10.579 1.90194 10.7771 2.13133 11.1724L2.32286 11.5024C2.55046 11.8945 2.66458 12.0912 2.82424 12.233C2.96588 12.3589 3.13262 12.453 3.31353 12.5093C3.51653 12.5725 3.74281 12.5687 4.19206 12.5611L4.48505 12.5562C4.52792 12.5555 4.54925 12.5554 4.57034 12.5557C4.7835 12.5589 4.99308 12.613 5.18096 12.7138C5.19951 12.7237 5.21823 12.7345 5.25523 12.7559C5.29237 12.7773 5.31088 12.7885 5.3288 12.7996C5.51004 12.9121 5.66173 13.0664 5.77097 13.2496C5.78164 13.2675 5.79186 13.2859 5.81215 13.3225L5.81274 13.3238L5.94631 13.5648C6.16856 13.9659 6.2799 14.1667 6.43818 14.3126C6.5782 14.4417 6.74405 14.539 6.92493 14.5985C7.12819 14.6654 7.35614 14.6649 7.80929 14.6639L8.19208 14.663C8.64753 14.6619 8.87507 14.6614 9.07815 14.594C9.25782 14.5343 9.42293 14.437 9.5621 14.3087C9.71926 14.1638 9.82983 13.965 10.0508 13.5678L10.0514 13.5666Z" stroke="#44413E" stroke-opacity="0.6" stroke-linecap="round" stroke-linejoin="round"/>
<path d="M8.00003 5.33355C6.52727 5.33355 5.33336 6.52746 5.33336 8.00022C5.33336 9.47298 6.52727 10.6669 8.00003 10.6669C9.47279 10.6669 10.6667 9.47298 10.6667 8.00022C10.6667 6.52746 9.47279 5.33355 8.00003 5.33355Z" stroke="#44413E" stroke-opacity="0.6" stroke-linecap="round" stroke-linejoin="round"/>
</svg>
