<svg width="122" height="122" viewBox="0 0 122 122" fill="none" xmlns="http://www.w3.org/2000/svg">
<rect width="122" height="122" rx="12" fill="#5B9165"/>
<path d="M25 103C26.4826 98.8488 31.9385 91.9696 41.9015 97.6627" stroke="#F2EDE5" stroke-width="3" stroke-linecap="round"/>
<path d="M38.3433 95.3267C40.1224 92.2697 45.6376 87.2844 53.4656 91.7994" stroke="#F2EDE5" stroke-width="3" stroke-linecap="round"/>
<path d="M49.9075 89.9896C54.0587 85.5419 64.9409 79.315 75.2597 89.9896" stroke="#F2EDE5" stroke-width="3" stroke-linecap="round"/>
<path d="M66.3643 95.8835C69.4777 90.1014 78.3732 86.988 86.3792 95.8836" stroke="#F2EDE5" stroke-width="3" stroke-linecap="round"/>
<path d="M77.0388 101.221C80.3005 97.0695 88.7809 91.5247 96.609 102.555" stroke="#F2EDE5" stroke-width="3" stroke-linecap="round"/>
<path d="M60.9614 83.7707C65.4092 76.2095 72.757 53.1419 57.8125 36.0625" stroke="#F2EDE5" stroke-width="3" stroke-linecap="round"/>
<path d="M46.8372 38.644C48.5586 46.0033 58.6218 47.0308 63.4382 46.6246C65.687 44.7485 68.2043 38.0646 67.948 32.3026C67.5937 24.3405 54.5328 20.0032 48.5174 19.1686C46.3282 22.7878 45.1157 31.2847 46.8372 38.644Z" stroke="#F2EDE5" stroke-width="3" stroke-linecap="round"/>
<path d="M66.3643 69.085C68.5881 65.675 74.3702 57.9655 81.9314 67.7506" stroke="#F2EDE5" stroke-width="3" stroke-linecap="round"/>
<path d="M85.7453 60.5989C79.3406 56.3291 75.9603 60.8955 75.0707 63.7124C74.4777 67.1223 75.1709 72.3764 80.1524 74.8671C85.1338 77.3579 92.606 77.9806 96.1642 77.9806C95.5712 75.1637 92.1501 64.8688 85.7453 60.5989Z" stroke="#F2EDE5" stroke-width="3" stroke-linecap="round"/>
<path d="M65.9193 69.6721C62.6576 66.1139 52.1312 61.0791 44.1252 65.0821" stroke="#F2EDE5" stroke-width="3" stroke-linecap="round"/>
<path d="M39.6774 56.6314C48.9287 52.7173 52.7242 59.4483 53.4655 63.303C54.355 65.5268 54.7656 65.9716 54.355 67.3059C52.5759 73.088 48.5729 74.4224 45.0147 74.8671C41.3796 75.3215 30.6336 75.6084 25.4446 74.8671C26.3341 70.4194 30.4261 60.5454 39.6774 56.6314Z" stroke="#F2EDE5" stroke-width="3" stroke-linecap="round"/>
</svg>
