<svg width="48" height="48" viewBox="0 0 48 48" fill="none" xmlns="http://www.w3.org/2000/svg">
<rect width="48" height="48" rx="12" fill="#5B9165"/>
<path d="M9.83618 40.5246C10.4195 38.8913 12.5661 36.1847 16.4859 38.4246" stroke="#F2EDE5" stroke-linecap="round"/>
<path d="M15.0859 37.5056C15.7859 36.3028 17.9558 34.3414 21.0357 36.1178" stroke="#F2EDE5" stroke-linecap="round"/>
<path d="M19.6357 35.4058C21.269 33.6558 25.5505 31.2059 29.6104 35.4058" stroke="#F2EDE5" stroke-linecap="round"/>
<path d="M26.1106 37.7246C27.3356 35.4497 30.8354 34.2248 33.9853 37.7247" stroke="#F2EDE5" stroke-linecap="round"/>
<path d="M30.3103 39.8245C31.5936 38.1913 34.9301 36.0097 38.01 40.3495" stroke="#F2EDE5" stroke-linecap="round"/>
<path d="M23.9848 32.9589C25.7347 29.984 28.6256 20.9082 22.7458 14.1885" stroke="#F2EDE5" stroke-linecap="round"/>
<path d="M18.4277 15.2042C19.105 18.0997 23.0643 18.504 24.9593 18.3442C25.8441 17.606 26.8345 14.9763 26.7336 12.7093C26.5943 9.57664 21.4555 7.87015 19.0888 7.54179C18.2275 8.96575 17.7504 12.3088 18.4277 15.2042Z" stroke="#F2EDE5" stroke-linecap="round"/>
<path d="M26.1106 27.1811C26.9856 25.8394 29.2605 22.8062 32.2354 26.6561" stroke="#F2EDE5" stroke-linecap="round"/>
<path d="M33.736 23.8422C31.2161 22.1622 29.8861 23.9588 29.5362 25.0671C29.3028 26.4088 29.5756 28.4759 31.5355 29.4559C33.4954 30.4359 36.4353 30.6809 37.8352 30.6809C37.6019 29.5726 36.2559 25.5221 33.736 23.8422Z" stroke="#F2EDE5" stroke-linecap="round"/>
<path d="M25.9355 27.4119C24.6522 26.012 20.5107 24.0311 17.3608 25.606" stroke="#F2EDE5" stroke-linecap="round"/>
<path d="M15.6108 22.2812C19.2507 20.7412 20.7439 23.3895 21.0356 24.9061C21.3856 25.7811 21.5471 25.956 21.3856 26.481C20.6856 28.7559 19.1107 29.2809 17.7107 29.4559C16.2805 29.6347 12.0526 29.7476 10.011 29.4559C10.361 27.706 11.9709 23.8211 15.6108 22.2812Z" stroke="#F2EDE5" stroke-linecap="round"/>
</svg>
